# xmcd
#
# Track frame offsets: 
#        150
#        55869
#        95766
#        143831
#
# Disc length: 2826 seconds
#
# Revision: 1
# Processed by: cddbd v1.5.2PL0 Copyright (c) Steve Scherf et al.
# Submitted via: ExactAudioCopyFreeDBPlugin 1.0
#
DISCID=330b0804
DTITLE=Elliott Sharp and Merzbow - Tranz
DYEAR=2005
DGENRE=Noise
TTITLE0=Merzbow - Mares 1
TTITLE1=Elliott Sharp - Esrma 1
TTITLE2=Merzbow - Mares 2
TTITLE3=Elliott Sharp - Esrma 2
EXTD=YEAR: 2004
EXTT0=
EXTT1=
EXTT2=
EXTT3=
PLAYORDER=
